<svg t="1716110382355" class="icon" viewBox="0 0 1024 1024" version="1.1" xmlns="http://www.w3.org/2000/svg" p-id="3518" width="200" height="200"><path d="M301.6 909.4c-14.8 0-29.6-4.7-42.3-14-23.8-17.2-34.5-45.7-28.1-74.2l43.6-195.8c0.3-1.2-0.2-2.5-1.2-3.3L123.3 489.3c-21.9-19.3-30-48.7-20.9-76.5 9.1-27.8 32.8-46.9 61.9-49.6l199.6-19c1.4-0.1 2.4-0.9 3-2.1L446.6 158c11.6-26.8 37.1-43.5 66.3-43.5 29.3 0 54.6 16.7 66.3 43.5L659 342c7.5 17.5-0.5 37.7-17.8 45.2-17.5 7.6-37.7-0.5-45.2-17.8l-79.8-184.1c-0.4-0.7-0.9-2.1-3.2-2.1s-2.9 1.3-3.2 2.1l-79.8 184c-10.4 24.2-33.3 40.8-59.4 43.3l-199.7 19c-0.8 0.1-2.3 0.2-3.1 2.4-0.6 2.2 0.4 3.1 1 3.7l150.4 132.8c19.7 17.4 28.4 44.2 22.7 69.9l-43.7 195.8c-0.2 0.8-0.5 2.2 1.4 3.6s3.1 0.6 3.9 0.2l172.7-102c22.7-13.4 50.9-13.3 73.5 0l172.7 102c0.7 0.5 1.9 1.2 3.8-0.2s1.5-2.8 1.4-3.6L684 640.4c-5.7-25.8 3-52.6 22.7-69.9L857 437.8c0.6-0.6 1.8-1.6 1-3.7-0.7-2.2-2.1-2.3-3.1-2.4l-95.5-9.1c-19-1.8-32.7-18.6-31-37.4 1.8-18.9 18.2-32.7 37.4-31l95.4 9.1c29.1 2.8 52.9 21.8 61.9 49.6 9.1 27.8 1 57.1-21 76.5L752.2 622.1c-0.9 0.8-1.4 2.2-1.1 3.4l43.6 195.7c6.4 28.6-4.3 57-28.1 74.2-23.7 17.3-54 18.7-79.1 3.7l-172.7-102c-1.1-0.6-2.5-0.6-3.5 0L338.5 899.2c-11.6 6.8-24.3 10.2-36.9 10.2" p-id="3519" fill="#fff"></path></svg>