<svg t="1716110516717" class="icon" viewBox="0 0 1024 1024" version="1.1" xmlns="http://www.w3.org/2000/svg" p-id="5635" width="200" height="200"><path d="M270.848 687.616c-2.56 0-5.12 0-7.68-0.512-19.968-2.048-37.376-11.776-50.176-27.648l-191.488-242.688c-15.36-19.456-19.968-44.544-12.288-68.096 7.168-23.04 25.6-41.472 49.152-48.128l913.408-268.288c15.872-4.608 32.768 2.048 40.96 16.896 8.192 14.848 4.608 32.768-8.192 43.52L317.44 669.696c-12.8 12.288-29.184 17.92-46.592 17.92z m642.56-584.192l-840.192 246.784c-7.168 2.048-12.288 7.168-14.848 14.336s-1.024 14.848 3.584 20.992l191.488 242.688c3.584 4.608 9.216 7.68 14.848 8.192 6.144 0.512 11.776-1.024 16.384-5.12l628.736-527.872zM515.072 992.768c-22.016 0-43.008-9.728-56.832-27.136l-133.632-164.864c-8.704-10.752-7.168-27.136 3.584-35.84 10.752-8.704 27.136-7.168 35.84 3.584l133.632 164.864c4.608 5.632 11.264 8.704 18.944 8.192 7.168-0.512 13.824-4.608 17.408-10.752l396.8-690.176c7.168-12.288 22.528-16.384 34.816-9.216 12.288 7.168 16.384 22.528 9.216 34.816L578.56 955.904c-12.288 20.992-33.792 34.816-57.344 36.352-2.048 0-4.096 0.512-6.144 0.512z" fill="#fff" p-id="5636"></path></svg>