<svg t="1716110446296" class="icon" viewBox="0 0 1024 1024" version="1.1" xmlns="http://www.w3.org/2000/svg" p-id="4578" width="200" height="200"><path d="M188.1 782.8v-33.4 13.2c0.7 11.3 10 20.2 21.4 20.2h-21.4z m333.7 56.1l-30.2-17.3 10.4 6c9.8 5.6 30 6 39.7-0.2l-19.9 11.5z m61.9-634.7h33.4-13.2c-11.3 0.7-20.2 10-20.2 21.4v-21.4z m-395.6 0.1h33.4-13.2c-11.3 0.6-20.2 10-20.2 21.4v-21.4zM839.3 783h-33.4 13.2c11.3-0.7 20.2-10 20.2-21.4V783z m-0.1-578.8v33.4-13.2c-0.7-11.3-10-20.2-21.4-20.2h21.4zM444.9 352.1c0-18.4-14.9-33.5-33.5-33.5h-71.9c-18.4 0-33.5 14.9-33.5 33.5 0 18.4 14.9 33.5 33.5 33.5h71.9c18.5-0.2 33.5-15.1 33.5-33.5z m0 149.3c0-18.4-14.9-33.5-33.5-33.5h-88.2c-18.4 0-33.5 14.9-33.5 33.5 0 18.4 14.9 33.5 33.5 33.5h88.2c18.5-0.1 33.5-15 33.5-33.5z m0 149.4c0-18.4-14.9-33.5-33.5-33.5h-63.7c-18.4 0-33.5 14.9-33.5 33.5 0 18.4 14.9 33.5 33.5 33.5h63.7c18.5-0.1 33.5-15.1 33.5-33.5z m0 0" fill="#fff" p-id="4579"></path><path d="M850.5 137.7h-0.4v-0.1H806v-0.1H570.6c-29.2 1-52.6 24.5-53.6 53.7v490.7c0 18.4 14.9 33.5 33.5 33.5 18.5 0 33.5-14.9 33.5-33.5V204.4h255v578.3H626.6c-0.3 0-0.7 0-1 0.1h-0.5c-0.4 0-0.9 0.1-1.3 0.2h-0.1c-5.1 0.7-9.8 2.4-14 5.1l-88.1 50.8-88.1-50.8c-4.1-2.6-8.8-4.4-14-5.1h-0.1c-0.4-0.1-0.9-0.1-1.3-0.2h-0.5c-0.3 0-0.6 0-1-0.1H188.3V204.4h216.8l26.4 15.2c16 9.2 36.4 3.8 45.6-12.2 9.2-16 3.8-36.4-12.2-45.6l-31.1-18c-5.5-3.9-12.2-6.2-19.3-6.2H175.1c-29.8 1.1-53.6 25.5-53.6 55.5v604.2c1.6 27.4 22.9 49.6 50.1 52.1h235.1l91.2 52.7c14.9 7.1 32.2 7.2 47.2 0.3l91.9-53h218.6c26.7-2.4 47.9-23.8 50.3-50.4V187.8c-2.9-28.2-26.6-50.1-55.4-50.1z m0 0" fill="#fff" p-id="4580"></path></svg>